<svg xmlns="http://www.w3.org/2000/svg" width="1000" height="520" viewBox="0 0 1000 520">
<rect width="100%" height="100%" fill="white"/>
<text x="500" y="28" text-anchor="middle" font-family="Arial" font-size="18">Holdout P&L — Before vs Frozen Filter</text>
<line x1="90" x2="970" y1="55" y2="55" stroke="#dddddd"/>
<text x="82" y="59" text-anchor="end" font-family="Arial" font-size="11">0</text>
<line x1="90" x2="970" y1="148.75" y2="148.75" stroke="#dddddd"/>
<text x="82" y="152.75" text-anchor="end" font-family="Arial" font-size="11">-86</text>
<line x1="90" x2="970" y1="242.5" y2="242.5" stroke="#dddddd"/>
<text x="82" y="246.5" text-anchor="end" font-family="Arial" font-size="11">-172</text>
<line x1="90" x2="970" y1="336.25" y2="336.25" stroke="#dddddd"/>
<text x="82" y="340.25" text-anchor="end" font-family="Arial" font-size="11">-257</text>
<line x1="90" x2="970" y1="430" y2="430" stroke="#dddddd"/>
<text x="82" y="434" text-anchor="end" font-family="Arial" font-size="11">-343</text>
<rect x="180" y="55" width="40" height="309.3192549842603" fill="#4c78a8"/>
<text x="200" y="49" text-anchor="middle" font-family="Arial" font-size="10">-283</text>
<text x="200" y="468" text-anchor="middle" font-family="Arial" font-size="11">Base All</text>
<rect x="400" y="55" width="40" height="235.1237320741518" fill="#4c78a8"/>
<text x="420" y="49" text-anchor="middle" font-family="Arial" font-size="10">-215</text>
<text x="420" y="468" text-anchor="middle" font-family="Arial" font-size="11">Base Kept</text>
<rect x="620" y="55" width="40" height="375" fill="#4c78a8"/>
<text x="640" y="49" text-anchor="middle" font-family="Arial" font-size="10">-343</text>
<text x="640" y="468" text-anchor="middle" font-family="Arial" font-size="11">Stress All</text>
<rect x="840" y="55" width="40" height="296.3995278069255" fill="#4c78a8"/>
<text x="860" y="49" text-anchor="middle" font-family="Arial" font-size="10">-271</text>
<text x="860" y="468" text-anchor="middle" font-family="Arial" font-size="11">Stress Kept</text>
<rect x="780" y="488" width="12" height="12" fill="#4c78a8"/><text x="798" y="499" font-family="Arial" font-size="11">Net P&L</text>
<text x="20" y="65" font-family="Arial" font-size="11">₹000s</text></svg>